# Blender v3.0.0 OBJ File: ''
# www.blender.org
mtllib Steve.mtl
o Cube
v -0.548908 6.487525 -1.114328
v -0.560913 5.351346 -1.110811
v 0.482139 5.340364 -1.098237
v 0.494144 6.476543 -1.101754
v -0.512911 6.477874 -4.108804
v 0.530140 6.466894 -4.096230
v 0.518135 5.330715 -4.092713
v -0.524916 5.341696 -4.105287
v -0.521593 3.497354 -1.138886
v -0.521593 3.497354 -0.002639
v 0.521593 3.497354 -0.002639
v 0.521592 3.497354 -1.138887
v -0.521593 0.502646 -1.138887
v 0.521593 0.502646 -1.138887
v 0.521593 0.502646 -0.002640
v -0.521592 0.502646 -0.002639
v -0.521593 3.497354 0.000452
v -0.521593 3.497354 1.136700
v 0.521593 3.497354 1.136700
v 0.521592 3.497354 0.000452
v -0.521593 0.502646 0.000451
v 0.521593 0.502646 0.000451
v 0.521593 0.502646 1.136698
v -0.521592 0.502646 1.136699
v -0.548908 6.487525 4.131317
v -0.560913 5.351346 4.134834
v 0.482139 5.340364 4.147408
v 0.494144 6.476542 4.143890
v -0.512911 6.477874 1.136840
v 0.530140 6.466893 1.149414
v 0.518135 5.330714 1.152931
v -0.524916 5.341696 1.140357
v -0.521593 6.486256 -1.131609
v -0.521593 6.486256 1.163830
v 0.521593 6.486256 1.163829
v 0.521592 6.486256 -1.131610
v -0.521593 3.491547 -1.131609
v 0.521593 3.491547 -1.131609
v 0.521593 3.491547 1.163829
v -0.521592 3.491547 1.163830
v -1.000000 8.474034 1.006574
v -1.000000 6.474077 0.993384
v -1.000000 6.474077 0.993384
v -1.000000 8.474034 1.006574
v 1.000000 6.487268 -1.006572
v -1.000000 6.487268 -1.006572
v -1.000000 8.487224 -0.993382
v 0.999999 8.487225 -0.993382
v 1.000000 6.474078 0.993384
v 1.000000 8.474034 1.006574
v 1.000000 6.474078 0.993384
v 1.000000 8.474034 1.006574
vt 0.689339 0.380423
vt 0.748748 0.495561
vt 0.689934 0.495565
vt 0.813120 0.496101
vt 0.759715 0.389343
vt 0.814246 0.387968
vt 0.693834 0.001912
vt 0.753152 0.375250
vt 0.691096 0.377156
vt 0.688328 0.374991
vt 0.748819 0.000058
vt 0.748819 0.369061
vt 0.687600 0.004327
vt 0.752404 0.365834
vt 0.688839 0.369572
vt 0.691833 0.375361
vt 0.749856 -0.002147
vt 0.690080 0.003953
vt 0.122790 0.486939
vt 0.062097 0.380523
vt 0.122711 0.377515
vt 0.129150 0.496087
vt 0.186982 0.384604
vt 0.185797 0.496086
vt 0.250211 0.001371
vt 0.187955 0.370491
vt 0.250211 0.373175
vt 0.003760 -0.002275
vt 0.058530 0.367886
vt -0.003674 0.368140
vt 0.068050 0.003935
vt 0.122484 0.365241
vt 0.068050 0.365241
vt 0.187524 0.370784
vt 0.125900 0.000071
vt 0.187525 0.000071
vt 0.123284 0.495731
vt 0.063538 0.374441
vt 0.124564 0.372844
vt 0.130391 0.486732
vt 0.177758 0.401205
vt 0.179068 0.489942
vt 0.250211 0.001371
vt 0.190639 0.367806
vt 0.250211 0.370491
vt 0.000878 0.010074
vt 0.062985 0.373364
vt 0.000878 0.373364
vt 0.065375 0.003473
vt 0.125158 0.375770
vt 0.065586 0.375905
vt 0.000807 0.377727
vt 0.059514 0.009620
vt 0.000807 0.009620
vt 0.811271 0.499729
vt 0.759154 0.385918
vt 0.810749 0.385914
vt 0.686919 0.378174
vt 0.749289 0.500739
vt 0.686282 0.500739
vt 0.748349 0.364560
vt 0.691885 0.002077
vt 0.747193 0.001975
vt 0.753944 0.372404
vt 0.688849 0.009758
vt 0.752226 0.003554
vt 0.756694 0.363210
vt 0.688950 0.008460
vt 0.756093 0.006957
vt 0.692350 0.372208
vt 0.755237 0.007035
vt 0.750468 0.372475
vt 0.439419 0.501069
vt 0.314588 0.373515
vt 0.440962 0.380069
vt 0.183671 0.494358
vt 0.129334 0.382434
vt 0.185427 0.380179
vt 0.625501 0.005748
vt 0.505681 0.370022
vt 0.622224 0.375264
vt 0.309159 -0.002509
vt 0.249632 0.373364
vt 0.309159 0.373364
vt 0.312738 0.372217
vt 0.438887 0.000239
vt 0.438887 0.372217
vt 0.500000 -0.005172
vt 0.441207 0.370784
vt 0.441206 -0.005172
vt 0.376673 0.749269
vt 0.375900 0.503487
vt 0.376673 0.749269
vt 0.374877 0.506418
vt 0.250104 0.747256
vt 0.249306 0.504219
vt 0.250780 0.503290
vt 0.126238 0.747512
vt 0.125687 0.503316
vt 0.249146 0.755974
vt 0.125829 0.999911
vt 0.125457 0.755906
vt 0.500661 0.750006
vt 0.375900 0.503487
vt 0.369216 0.761856
vt 0.253952 0.991808
vt 0.253952 0.761856
vt 0.123832 0.501264
vt 0.002091 0.753476
vt 0.001326 0.503335
vt 1.000000 1.000000
vt 1.000000 0.000000
vt 1.000000 1.000000
vt 0.125829 0.999911
vt 0.125457 0.755906
vt 0.126238 0.747512
vt 0.125687 0.503316
vt 0.748153 0.380419
vt 0.757901 0.498796
vt 0.747501 0.008395
vt 0.688328 0.005988
vt 0.751165 0.000589
vt 0.751610 0.369261
vt 0.062175 0.489947
vt 0.130335 0.384604
vt 0.187955 -0.001314
vt 0.065964 -0.002528
vt 0.122484 0.003935
vt 0.125900 0.370784
vt 0.062259 0.497328
vt 0.129081 0.397994
vt 0.190639 -0.001314
vt 0.062985 0.010074
vt 0.124947 0.003338
vt 0.059514 0.377727
vt 0.759676 0.499733
vt 0.749925 0.378174
vt 0.693041 0.364662
vt 0.690567 0.378607
vt 0.689552 0.364713
vt 0.697119 0.006768
vt 0.313044 0.494516
vt 0.127578 0.496613
vt 0.508958 0.000506
vt 0.249632 -0.002509
vt 0.312738 0.000239
vt 0.500000 0.370784
vt 0.374931 0.749621
vt 0.251113 0.748845
vt 0.249112 0.999932
vt 0.500024 0.502517
vt 0.369216 0.991808
vt 0.124180 0.750315
vt 1.000000 0.000000
vn -0.0120 0.0032 0.9999
vn 0.0120 -0.0032 -0.9999
vn -0.9999 0.0105 -0.0121
vn -0.0106 -0.9999 0.0031
vn 0.9999 -0.0105 0.0121
vn 0.0106 0.9999 -0.0031
vn 0.0000 1.0000 0.0000
vn 0.0000 -1.0000 -0.0000
vn -1.0000 0.0000 0.0000
vn 0.0000 0.0000 1.0000
vn 1.0000 0.0000 -0.0000
vn 0.0000 0.0000 -1.0000
vn 0.0000 0.0066 -1.0000
vn 0.0000 1.0000 0.0066
vn 0.0000 -1.0000 -0.0066
vn 0.0000 -0.0066 1.0000
usemtl Material
s off
f 2/1/1 4/2/1 1/3/1
f 5/4/2 7/5/2 8/6/2
f 5/7/3 2/8/3 1/9/3
f 2/10/4 7/11/4 3/12/4
f 7/13/5 4/14/5 3/15/5
f 1/16/6 6/17/6 5/18/6
f 10/19/7 12/20/7 9/21/7
f 14/22/8 16/23/8 13/24/8
f 13/25/9 10/26/9 9/27/9
f 16/28/10 11/29/10 10/30/10
f 15/31/11 12/32/11 11/33/11
f 9/34/12 14/35/12 13/36/12
f 18/37/7 20/38/7 17/39/7
f 22/40/8 24/41/8 21/42/8
f 21/43/9 18/44/9 17/45/9
f 24/46/10 19/47/10 18/48/10
f 23/49/11 20/50/11 19/51/11
f 17/52/12 22/53/12 21/54/12
f 26/55/1 28/56/1 25/57/1
f 29/58/2 31/59/2 32/60/2
f 29/61/3 26/62/3 25/63/3
f 32/64/4 27/65/4 26/66/4
f 31/67/5 28/68/5 27/69/5
f 29/70/6 28/71/6 30/72/6
f 33/73/7 35/74/7 36/75/7
f 37/76/8 39/77/8 40/78/8
f 37/79/9 34/80/9 33/81/9
f 40/82/10 35/83/10 34/84/10
f 35/85/11 38/86/11 36/87/11
f 37/88/12 36/89/12 38/90/12
f 41/91/10 43/92/10 44/93/10
f 46/94/13 48/95/13 45/96/13
f 45/97/11 50/98/11 49/99/11
f 48/100/14 41/101/14 50/102/14
f 47/103/9 42/104/9 41/91/9
f 49/105/15 46/106/15 45/107/15
f 51/108/16 44/109/16 43/110/16
f 42/111/10 51/112/10 43/113/10
f 50/102/10 44/114/10 52/115/10
f 49/99/10 52/116/10 51/117/10
f 2/1/1 3/118/1 4/2/1
f 5/4/2 6/119/2 7/5/2
f 5/7/3 8/120/3 2/8/3
f 2/10/4 8/121/4 7/11/4
f 7/13/5 6/122/5 4/14/5
f 1/16/6 4/123/6 6/17/6
f 10/19/7 11/124/7 12/20/7
f 14/22/8 15/125/8 16/23/8
f 13/25/9 16/126/9 10/26/9
f 16/28/10 15/127/10 11/29/10
f 15/31/11 14/128/11 12/32/11
f 9/34/12 12/129/12 14/35/12
f 18/37/7 19/130/7 20/38/7
f 22/40/8 23/131/8 24/41/8
f 21/43/9 24/132/9 18/44/9
f 24/46/10 23/133/10 19/47/10
f 23/49/11 22/134/11 20/50/11
f 17/52/12 20/135/12 22/53/12
f 26/55/1 27/136/1 28/56/1
f 29/58/2 30/137/2 31/59/2
f 29/61/3 32/138/3 26/62/3
f 32/64/4 31/139/4 27/65/4
f 31/67/5 30/140/5 28/68/5
f 29/70/6 25/141/6 28/71/6
f 33/73/7 34/142/7 35/74/7
f 37/76/8 38/143/8 39/77/8
f 37/79/9 40/144/9 34/80/9
f 40/82/10 39/145/10 35/83/10
f 35/85/11 39/146/11 38/86/11
f 37/88/12 33/147/12 36/89/12
f 41/91/10 42/104/10 43/92/10
f 46/94/13 47/148/13 48/95/13
f 45/97/11 48/149/11 50/98/11
f 48/100/14 47/150/14 41/101/14
f 47/103/9 46/151/9 42/104/9
f 49/105/15 42/152/15 46/106/15
f 51/108/16 52/153/16 44/109/16
f 42/111/10 49/154/10 51/112/10
f 50/102/10 41/101/10 44/114/10
f 49/99/10 50/98/10 52/116/10
